<svg xmlns="http://www.w3.org/2000/svg" xmlns:xlink="http://www.w3.org/1999/xlink" width="320" zoomAndPan="magnify" viewBox="0 0 240 239.999995" height="320" preserveAspectRatio="xMidYMid meet" version="1.0"><defs><g/><clipPath id="25e6b2ab04"><path d="M 55.175781 61.28125 L 189.578125 61.28125 L 189.578125 68.710938 L 55.175781 68.710938 Z M 55.175781 61.28125 " clip-rule="nonzero"/></clipPath><clipPath id="27eb5ad32b"><path d="M 0.175781 0.28125 L 134.578125 0.28125 L 134.578125 7.710938 L 0.175781 7.710938 Z M 0.175781 0.28125 " clip-rule="nonzero"/></clipPath><clipPath id="f6f2b73d0f"><rect x="0" width="135" y="0" height="8"/></clipPath><clipPath id="7e18785bf4"><path d="M 55.175781 81.410156 L 189.578125 81.410156 L 189.578125 89.136719 L 55.175781 89.136719 Z M 55.175781 81.410156 " clip-rule="nonzero"/></clipPath><clipPath id="8fdaedafeb"><path d="M 0.175781 0.410156 L 134.578125 0.410156 L 134.578125 8.136719 L 0.175781 8.136719 Z M 0.175781 0.410156 " clip-rule="nonzero"/></clipPath><clipPath id="d479566b4b"><rect x="0" width="135" y="0" height="9"/></clipPath><clipPath id="a152b8f027"><path d="M 55.175781 101.835938 L 189.578125 101.835938 L 189.578125 109.503906 L 55.175781 109.503906 Z M 55.175781 101.835938 " clip-rule="nonzero"/></clipPath><clipPath id="821e77a116"><path d="M 0.175781 0.835938 L 134.578125 0.835938 L 134.578125 8.503906 L 0.175781 8.503906 Z M 0.175781 0.835938 " clip-rule="nonzero"/></clipPath><clipPath id="82855de781"><rect x="0" width="135" y="0" height="9"/></clipPath><clipPath id="7ec8daed85"><path d="M 55.175781 122.203125 L 189.578125 122.203125 L 189.578125 129.480469 L 55.175781 129.480469 Z M 55.175781 122.203125 " clip-rule="nonzero"/></clipPath><clipPath id="abb246d30c"><path d="M 0.175781 0.203125 L 134.578125 0.203125 L 134.578125 7.480469 L 0.175781 7.480469 Z M 0.175781 0.203125 " clip-rule="nonzero"/></clipPath><clipPath id="06c1f83808"><rect x="0" width="135" y="0" height="8"/></clipPath><clipPath id="e1439d6e1a"><path d="M 55.175781 142.179688 L 189.578125 142.179688 L 189.578125 149.910156 L 55.175781 149.910156 Z M 55.175781 142.179688 " clip-rule="nonzero"/></clipPath><clipPath id="6bd7c98064"><path d="M 0.175781 0.179688 L 134.578125 0.179688 L 134.578125 7.910156 L 0.175781 7.910156 Z M 0.175781 0.179688 " clip-rule="nonzero"/></clipPath><clipPath id="7dae7793b3"><rect x="0" width="135" y="0" height="8"/></clipPath><clipPath id="fea7440438"><path d="M 55.175781 162.609375 L 189.578125 162.609375 L 189.578125 170.335938 L 55.175781 170.335938 Z M 55.175781 162.609375 " clip-rule="nonzero"/></clipPath><clipPath id="044273bad8"><path d="M 0.175781 0.609375 L 134.578125 0.609375 L 134.578125 8.335938 L 0.175781 8.335938 Z M 0.175781 0.609375 " clip-rule="nonzero"/></clipPath><clipPath id="199c52475b"><rect x="0" width="135" y="0" height="9"/></clipPath></defs><rect x="-24" width="288" fill="#ffffff" y="-23.999999" height="287.999994" fill-opacity="1"/><rect x="-24" width="288" fill="#ffffff" y="-23.999999" height="287.999994" fill-opacity="1"/><g fill="#000000" fill-opacity="1"><g transform="translate(61.499999, 190.124988)"><g><path d="M 112.59375 -126.203125 L 37.796875 -22.203125 C 42.867188 -21.929688 48.46875 -21.660156 54.59375 -21.390625 C 60.726562 -21.128906 67.460938 -21 74.796875 -21 C 82.265625 -21 88.164062 -21.429688 92.5 -22.296875 C 96.832031 -23.160156 99.929688 -24.023438 101.796875 -24.890625 C 103.660156 -25.765625 104.59375 -26.203125 104.59375 -26.203125 C 104.59375 -26.203125 104.957031 -25.535156 105.6875 -24.203125 C 106.425781 -22.867188 106.796875 -20.664062 106.796875 -17.59375 C 106.796875 -12.53125 104.992188 -8.332031 101.390625 -5 C 97.796875 -1.664062 92.066406 0 84.203125 0 C 77.929688 0 71.628906 -0.566406 65.296875 -1.703125 C 58.960938 -2.835938 53.160156 -4.132812 47.890625 -5.59375 C 42.628906 -7.0625 38.398438 -8.363281 35.203125 -9.5 C 32.003906 -10.632812 30.40625 -11.203125 30.40625 -11.203125 C 30.40625 -11.203125 29.570312 -10.265625 27.90625 -8.390625 C 26.238281 -6.523438 23.738281 -4.660156 20.40625 -2.796875 C 17.070312 -0.929688 12.9375 0 8 0 C 2.9375 0 -0.660156 -1.234375 -2.796875 -3.703125 C -4.929688 -6.171875 -6 -8.867188 -6 -11.796875 C -6 -14.867188 -4.898438 -17.601562 -2.703125 -20 C -0.503906 -22.394531 2.863281 -23.660156 7.40625 -23.796875 L 82.796875 -127.796875 C 77.867188 -128.066406 72.367188 -128.332031 66.296875 -128.59375 C 60.234375 -128.863281 53.535156 -129 46.203125 -129 C 38.867188 -129 33 -128.566406 28.59375 -127.703125 C 24.195312 -126.835938 21.066406 -125.96875 19.203125 -125.09375 C 17.335938 -124.226562 16.40625 -123.796875 16.40625 -123.796875 C 16.40625 -123.796875 16.035156 -124.460938 15.296875 -125.796875 C 14.566406 -127.128906 14.203125 -129.332031 14.203125 -132.40625 C 14.203125 -137.46875 16.035156 -141.664062 19.703125 -145 C 23.367188 -148.332031 29.066406 -150 36.796875 -150 C 43.066406 -150 49.367188 -149.429688 55.703125 -148.296875 C 62.035156 -147.160156 67.832031 -145.859375 73.09375 -144.390625 C 78.363281 -142.929688 82.597656 -141.632812 85.796875 -140.5 C 88.992188 -139.363281 90.59375 -138.796875 90.59375 -138.796875 C 90.59375 -138.796875 91.425781 -139.726562 93.09375 -141.59375 C 94.757812 -143.46875 97.257812 -145.335938 100.59375 -147.203125 C 103.925781 -149.066406 108.0625 -150 113 -150 C 118.0625 -150 121.660156 -148.765625 123.796875 -146.296875 C 125.929688 -143.828125 127 -141.128906 127 -138.203125 C 127 -135.128906 125.863281 -132.359375 123.59375 -129.890625 C 121.332031 -127.429688 117.664062 -126.203125 112.59375 -126.203125 Z M 112.59375 -126.203125 "/></g></g></g><g clip-path="url(#25e6b2ab04)"><g transform="matrix(1, 0, 0, 1, 55, 61)"><g clip-path="url(#f6f2b73d0f)"><g clip-path="url(#27eb5ad32b)"><path fill="#ffffff" d="M 0.175781 0.28125 L 134.585938 0.28125 L 134.585938 7.710938 L 0.175781 7.710938 Z M 0.175781 0.28125 " fill-opacity="1" fill-rule="nonzero"/></g></g></g></g><g clip-path="url(#7e18785bf4)"><g transform="matrix(1, 0, 0, 1, 55, 81)"><g clip-path="url(#d479566b4b)"><g clip-path="url(#8fdaedafeb)"><path fill="#ffffff" d="M 0.175781 0.410156 L 134.578125 0.410156 L 134.578125 8.136719 L 0.175781 8.136719 Z M 0.175781 0.410156 " fill-opacity="1" fill-rule="nonzero"/></g></g></g></g><g clip-path="url(#a152b8f027)"><g transform="matrix(1, 0, 0, 1, 55, 101)"><g clip-path="url(#82855de781)"><g clip-path="url(#821e77a116)"><path fill="#ffffff" d="M 0.175781 0.835938 L 134.59375 0.835938 L 134.59375 8.503906 L 0.175781 8.503906 Z M 0.175781 0.835938 " fill-opacity="1" fill-rule="nonzero"/></g></g></g></g><g clip-path="url(#7ec8daed85)"><g transform="matrix(1, 0, 0, 1, 55, 122)"><g clip-path="url(#06c1f83808)"><g clip-path="url(#abb246d30c)"><path fill="#ffffff" d="M 0.175781 0.203125 L 134.574219 0.203125 L 134.574219 7.480469 L 0.175781 7.480469 Z M 0.175781 0.203125 " fill-opacity="1" fill-rule="nonzero"/></g></g></g></g><g clip-path="url(#e1439d6e1a)"><g transform="matrix(1, 0, 0, 1, 55, 142)"><g clip-path="url(#7dae7793b3)"><g clip-path="url(#6bd7c98064)"><path fill="#ffffff" d="M 0.175781 0.179688 L 134.578125 0.179688 L 134.578125 7.910156 L 0.175781 7.910156 Z M 0.175781 0.179688 " fill-opacity="1" fill-rule="nonzero"/></g></g></g></g><g clip-path="url(#fea7440438)"><g transform="matrix(1, 0, 0, 1, 55, 162)"><g clip-path="url(#199c52475b)"><g clip-path="url(#044273bad8)"><path fill="#ffffff" d="M 0.175781 0.609375 L 134.578125 0.609375 L 134.578125 8.335938 L 0.175781 8.335938 Z M 0.175781 0.609375 " fill-opacity="1" fill-rule="nonzero"/></g></g></g></g></svg>